<svg width="200" height="200" viewBox="0 0 200 200" fill="none" xmlns="http://www.w3.org/2000/svg">
<path d="M5.48482 103.5C4.2344 101.334 4.2344 98.6658 5.48483 96.5L49.7113 19.8975C50.9618 17.7317 53.2726 16.3975 55.7735 16.3975H144.227C146.727 16.3975 149.038 17.7316 150.289 19.8975L194.515 96.5C195.766 98.6658 195.766 101.334 194.515 103.5L150.289 180.103C149.038 182.268 146.727 183.603 144.227 183.603H55.7735C53.2726 183.603 50.9618 182.268 49.7113 180.103L5.48482 103.5Z" fill="#21539D" stroke="#14326C" stroke-width="6"/>
<path d="M47 103L59.9904 125.5H34.0096L47 103Z" fill="#EC6363"/>
<circle cx="77" cy="59" r="15" fill="#60E0F1"/>
<path d="M134 82L141.5 69.0096H156.5L164 82L156.5 94.9904H141.5L134 82Z" fill="#DE8720"/>
<line x1="81.4142" y1="142.586" x2="102.627" y2="163.799" stroke="#92ED68" stroke-width="4"/>
<line x1="80.5858" y1="163.968" x2="101.799" y2="142.755" stroke="#92ED68" stroke-width="4"/>
<path d="M137 114L140.368 124.365H151.266L142.449 130.771L145.817 141.135L137 134.729L128.183 141.135L131.551 130.771L122.734 124.365H133.632L137 114Z" fill="#EC64D6"/>
</svg>
